<mxfile host="65bd71144e">
    <diagram id="T8pmpTCMuDaPm9wjzUCa" name="Page-1">
        <mxGraphModel dx="1283" dy="1272" grid="1" gridSize="10" guides="1" tooltips="1" connect="1" arrows="1" fold="1" page="0" pageScale="1" pageWidth="827" pageHeight="1169" background="none" math="0" shadow="0">
            <root>
                <mxCell id="0"/>
                <mxCell id="1" parent="0"/>
                <mxCell id="11" value="&lt;span style=&quot;font-weight: normal;&quot;&gt;##################################################&lt;br&gt;&lt;/span&gt;&lt;br&gt;OutboundSubstreamState&lt;br&gt;&lt;br&gt;&lt;span style=&quot;font-weight: normal;&quot;&gt;State of an outbound substream.&lt;br&gt;&lt;/span&gt;&lt;br&gt;&lt;span style=&quot;font-weight: normal;&quot;&gt;##################################################&lt;/span&gt;" style="shape=note;whiteSpace=wrap;html=1;backgroundOutline=1;darkOpacity=0.05;fontStyle=1" parent="1" vertex="1">
                    <mxGeometry x="-6.25" y="-20" width="410" height="130" as="geometry"/>
                </mxCell>
                <mxCell id="198" value="" style="ellipse;html=1;shape=startState;fillColor=#000000;strokeColor=#ff0000;" parent="1" vertex="1">
                    <mxGeometry x="183.75" y="150" width="30" height="30" as="geometry"/>
                </mxCell>
                <mxCell id="199" value="" style="edgeStyle=orthogonalEdgeStyle;html=1;verticalAlign=bottom;endArrow=open;endSize=8;strokeColor=#ff0000;entryX=0.5;entryY=0;entryDx=0;entryDy=0;" parent="1" source="198" target="201" edge="1">
                    <mxGeometry relative="1" as="geometry">
                        <mxPoint x="195" y="240" as="targetPoint"/>
                    </mxGeometry>
                </mxCell>
                <mxCell id="201" value="RequestPendingResponse" style="swimlane;fontStyle=1;align=center;verticalAlign=middle;childLayout=stackLayout;horizontal=1;startSize=30;horizontalStack=0;resizeParent=0;resizeLast=1;container=0;fontColor=#000000;collapsible=0;rounded=1;arcSize=30;strokeColor=#ff0000;fillColor=#ffffc0;swimlaneFillColor=#ffffc0;dropTarget=0;" parent="1" vertex="1">
                    <mxGeometry x="37.5" y="240" width="322.5" height="80" as="geometry"/>
                </mxCell>
                <mxCell id="202" value="A request has been sent, and we are awaiting a response." style="text;html=1;strokeColor=none;fillColor=none;align=center;verticalAlign=middle;spacingLeft=4;spacingRight=4;whiteSpace=wrap;overflow=hidden;rotatable=0;fontColor=#000000;" parent="201" vertex="1">
                    <mxGeometry y="30" width="322.5" height="50" as="geometry"/>
                </mxCell>
                <mxCell id="205" value="Poisoned" style="swimlane;fontStyle=1;align=center;verticalAlign=middle;childLayout=stackLayout;horizontal=1;startSize=30;horizontalStack=0;resizeParent=0;resizeLast=1;container=0;fontColor=#000000;collapsible=0;rounded=1;arcSize=30;strokeColor=#ff0000;fillColor=#ffffc0;swimlaneFillColor=#ffffc0;dropTarget=0;" parent="1" vertex="1">
                    <mxGeometry x="37.5" y="440" width="322.5" height="120" as="geometry"/>
                </mxCell>
                <mxCell id="206" value="Temporary state during processing" style="text;html=1;strokeColor=none;fillColor=none;align=center;verticalAlign=middle;spacingLeft=4;spacingRight=4;whiteSpace=wrap;overflow=hidden;rotatable=0;fontColor=#000000;" parent="205" vertex="1">
                    <mxGeometry y="30" width="322.5" height="90" as="geometry"/>
                </mxCell>
                <mxCell id="207" value="Closing" style="swimlane;fontStyle=1;align=center;verticalAlign=middle;childLayout=stackLayout;horizontal=1;startSize=30;horizontalStack=0;resizeParent=0;resizeLast=1;container=0;fontColor=#000000;collapsible=0;rounded=1;arcSize=30;strokeColor=#ff0000;fillColor=#ffffc0;swimlaneFillColor=#ffffc0;dropTarget=0;" parent="1" vertex="1">
                    <mxGeometry x="37.5" y="680" width="322.5" height="120" as="geometry"/>
                </mxCell>
                <mxCell id="208" value="&amp;nbsp;Closing an outbound substream" style="text;html=1;strokeColor=none;fillColor=none;align=center;verticalAlign=middle;spacingLeft=4;spacingRight=4;whiteSpace=wrap;overflow=hidden;rotatable=0;fontColor=#000000;" parent="207" vertex="1">
                    <mxGeometry y="30" width="322.5" height="90" as="geometry"/>
                </mxCell>
                <mxCell id="209" value="" style="edgeStyle=orthogonalEdgeStyle;html=1;verticalAlign=bottom;endArrow=open;endSize=8;strokeColor=#ff0000;exitX=0.5;exitY=1;exitDx=0;exitDy=0;entryX=0.5;entryY=0;entryDx=0;entryDy=0;" parent="1" source="206" target="207" edge="1">
                    <mxGeometry relative="1" as="geometry">
                        <mxPoint x="210" y="670" as="targetPoint"/>
                        <mxPoint x="208.79999999999995" y="330" as="sourcePoint"/>
                    </mxGeometry>
                </mxCell>
                <mxCell id="210" value="" style="ellipse;html=1;shape=endState;fillColor=#000000;strokeColor=#ff0000;" parent="1" vertex="1">
                    <mxGeometry x="183.75" y="870" width="30" height="30" as="geometry"/>
                </mxCell>
                <mxCell id="211" value="" style="edgeStyle=orthogonalEdgeStyle;html=1;verticalAlign=bottom;endArrow=open;endSize=8;strokeColor=#ff0000;entryX=0.5;entryY=0;entryDx=0;entryDy=0;" parent="1" target="210" edge="1">
                    <mxGeometry relative="1" as="geometry">
                        <mxPoint x="208.75" y="690" as="targetPoint"/>
                        <mxPoint x="199" y="800" as="sourcePoint"/>
                    </mxGeometry>
                </mxCell>
                <mxCell id="212" value="" style="edgeStyle=orthogonalEdgeStyle;html=1;verticalAlign=bottom;endArrow=open;endSize=8;strokeColor=#ff0000;entryX=0.628;entryY=1.05;entryDx=0;entryDy=0;entryPerimeter=0;exitX=0.625;exitY=-0.004;exitDx=0;exitDy=0;exitPerimeter=0;" edge="1" parent="1" source="205" target="202">
                    <mxGeometry relative="1" as="geometry">
                        <mxPoint x="208.75" y="450" as="targetPoint"/>
                        <mxPoint x="400" y="350" as="sourcePoint"/>
                    </mxGeometry>
                </mxCell>
                <mxCell id="213" value="" style="edgeStyle=orthogonalEdgeStyle;html=1;verticalAlign=bottom;endArrow=open;endSize=8;strokeColor=#ff0000;exitX=0.38;exitY=1.05;exitDx=0;exitDy=0;exitPerimeter=0;" edge="1" parent="1" source="202">
                    <mxGeometry relative="1" as="geometry">
                        <mxPoint x="160" y="440" as="targetPoint"/>
                        <mxPoint x="208.75" y="570" as="sourcePoint"/>
                    </mxGeometry>
                </mxCell>
            </root>
        </mxGraphModel>
    </diagram>
</mxfile>